<?xml version="1.0" encoding="utf-8"?>
<svg width="127" height="127"  id="Layer_1" data-name="Layer 1" xmlns="http://www.w3.org/2000/svg" viewBox="0 0 42.66 52.2"><defs><style>.cls-1{fill:#f8bb16;}.cls-2{fill:#fbf5a9;}.cls-3{fill:#ffd655;}.cls-4{fill:#ec8d23;}</style></defs><title>visual3</title><g id="_Group_" data-name="&lt;Group&gt;"><g id="_Group_2" data-name="&lt;Group&gt;"><g id="_Group_3" data-name="&lt;Group&gt;"><polygon id="_Path_" data-name="&lt;Path&gt;" class="cls-1" points="14.22 52.2 0 25.02 5.77 13.84 20 41.01 14.22 52.2"/><polygon id="_Path_2" data-name="&lt;Path&gt;" class="cls-2" points="21.48 52.19 14.22 52.2 20 41.01 27.25 41.01 21.48 52.19"/><polygon id="_Path_3" data-name="&lt;Path&gt;" class="cls-3" points="20 41.01 5.77 13.84 13.03 13.84 27.25 41.01 20 41.01"/></g></g><g id="_Group_4" data-name="&lt;Group&gt;"><g id="_Group_5" data-name="&lt;Group&gt;"><polygon id="_Path_4" data-name="&lt;Path&gt;" class="cls-1" points="29.63 0 8.45 41.01 14.22 52.2 35.4 11.18 29.63 0"/><polygon id="_Path_5" data-name="&lt;Path&gt;" class="cls-3" points="36.89 0 29.63 0 35.4 11.18 42.66 11.18 36.89 0"/><polygon id="_Path_6" data-name="&lt;Path&gt;" class="cls-4" points="35.4 11.18 14.22 52.2 21.48 52.2 42.66 11.18 35.4 11.18"/></g></g></g></svg>
