<?xml version="1.0" encoding="utf-8"?>
<svg width="127" height="127"  id="Layer_1" data-name="Layer 1" xmlns="http://www.w3.org/2000/svg" viewBox="0 0 33.38 59.48"><defs><style>.cls-1{fill:#0d9159;}.cls-2{fill:#36a852;}.cls-3{fill:#7bc57b;}.cls-4{fill:#f8bb16;}.cls-5{fill:#ffdf7c;}</style></defs><title>visual4</title><g id="_Group_" data-name="&lt;Group&gt;"><polygon id="_Path_" data-name="&lt;Path&gt;" class="cls-1" points="5.94 36.07 11.78 48.51 27.17 56.46 33.38 49.72 33.38 36.24 5.94 22.08 5.94 36.07"/><polygon id="_Path_2" data-name="&lt;Path&gt;" class="cls-2" points="0 39.09 5.84 51.53 21.23 59.48 27.43 52.75 27.43 39.26 0 25.1 0 39.09"/><polygon id="_Path_3" data-name="&lt;Path&gt;" class="cls-3" points="0 25.1 27.43 39.26 33.38 36.24 5.94 22.08 0 25.1"/><polygon id="_Path_4" data-name="&lt;Path&gt;" class="cls-3" points="27.43 52.75 21.23 59.48 27.17 56.46 33.38 49.72 27.43 52.75"/><g id="_Group_2" data-name="&lt;Group&gt;"><g id="_Group_3" data-name="&lt;Group&gt;"><g id="_Group_4" data-name="&lt;Group&gt;"><polygon id="_Path_5" data-name="&lt;Path&gt;" class="cls-4" points="6.78 27.46 6.78 27.47 6.78 27.47 6.78 27.46"/><polygon id="_Path_6" data-name="&lt;Path&gt;" class="cls-1" points="6.78 27.46 10.72 25.41 10.72 0.33 6.78 2.37 6.78 27.46"/><polygon id="_Path_7" data-name="&lt;Path&gt;" class="cls-5" points="6.13 2.04 6.78 2.37 10.72 0.33 10.08 0 6.13 2.04"/></g><g id="_Group_5" data-name="&lt;Group&gt;"><polygon id="_Path_8" data-name="&lt;Path&gt;" class="cls-4" points="26.33 37.64 26.33 37.64 26.33 37.64 26.33 37.64"/><polygon id="_Path_9" data-name="&lt;Path&gt;" class="cls-1" points="26.33 16.57 26.33 16.57 26.33 37.64 30.28 35.58 30.28 14.62 26.33 16.57"/><polygon id="_Path_10" data-name="&lt;Path&gt;" class="cls-5" points="26.61 8.63 26.33 8.48 22.39 10.52 22.69 10.68 22.68 10.66 26.61 8.63"/></g><polygon id="_Path_11" data-name="&lt;Path&gt;" class="cls-3" points="26.63 8.62 10.07 0.01 6.12 2.04 22.68 10.66 22.68 10.66 26.63 8.62"/></g><polygon id="_Path_12" data-name="&lt;Path&gt;" class="cls-1" points="22.68 10.66 26.63 8.62 30.28 14.62 26.33 16.57 22.68 10.66"/><polygon id="_Path_13" data-name="&lt;Path&gt;" class="cls-2" points="26.33 16.57 22.69 10.68 22.69 10.68 22.68 10.66 6.13 2.04 6.12 2.04 6.12 2.04 2.83 3.74 2.83 25.41 6.78 27.47 6.78 27.46 6.78 10.13 8.25 9.38 21.12 16.14 22.39 18.87 22.39 35.58 26.33 37.64 26.33 37.64 26.33 16.57 26.33 16.57 26.33 16.57"/></g></g></svg>
