<?xml version="1.0" encoding="utf-8"?>
<svg width="127" height="127"  id="Layer_1" data-name="Layer 1" xmlns="http://www.w3.org/2000/svg" viewBox="0 0 46.6 57.14"><defs><style>.cls-1{fill:#3b68b1;}.cls-2{fill:#abccec;}.cls-3{fill:#8bb1de;}.cls-4{fill:#557ebf;}</style></defs><title>visual5</title><g id="_Group_" data-name="&lt;Group&gt;"><g id="_Group_2" data-name="&lt;Group&gt;"><polygon id="_Path_" data-name="&lt;Path&gt;" class="cls-1" points="6.85 8.82 18.6 14.94 26.85 9.48 27.85 0 31.82 3.98 34.57 9.83 33.57 22.73 41.99 27.11 46.6 34.12 46.6 51.41 41.99 53.61 21.1 42.74 14.85 34.73 6.85 30.57 6.85 8.82"/></g><polygon id="_Path_2" data-name="&lt;Path&gt;" class="cls-2" points="24.97 7.5 31.82 3.98 34.57 9.83 27.72 13.36 24.97 7.5"/><polygon id="_Path_3" data-name="&lt;Path&gt;" class="cls-2" points="26.72 26.26 33.57 22.73 41.99 27.11 35.14 30.64 26.72 26.26"/><polygon id="_Path_4" data-name="&lt;Path&gt;" class="cls-3" points="39.75 37.64 46.6 34.12 41.99 27.11 35.14 30.64 39.75 37.64"/><polygon id="_Path_5" data-name="&lt;Path&gt;" class="cls-3" points="0 12.34 6.85 8.82 18.6 14.94 11.75 18.46 0 12.34"/><polygon id="_Path_6" data-name="&lt;Path&gt;" class="cls-4" points="0 12.34 11.75 18.46 20 13.01 21 3.53 24.97 7.5 27.72 13.36 26.72 26.26 35.14 30.64 39.75 37.64 39.75 54.93 35.14 57.14 14.25 46.26 8 38.26 0 34.09 0 12.34"/><polygon id="_Path_7" data-name="&lt;Path&gt;" class="cls-3" points="21 3.53 27.85 0 31.82 3.98 24.97 7.5 21 3.53"/><polygon id="_Path_8" data-name="&lt;Path&gt;" class="cls-1" points="39.75 54.93 46.6 51.41 46.6 34.12 39.75 37.64 39.75 54.93"/></g></svg>
