<?xml version="1.0" ?><svg height="148px" preserveAspectRatio="none" viewBox="0 0 102.0 148" width="102.0px" xmlns="http://www.w3.org/2000/svg" xmlns:xlink="http://www.w3.org/1999/xlink"><g id="s20-20" transform="translate(20, 20)"><g transform="translate(-0.0, -0.0)">
<path d="M30 1.5L30 6.5L1 5.5L1 0.499999L30 1.5Z" fill="#765431"/>
<path d="M29 11L29 16L-3.69283e-07 16L0 10L29 11Z" fill="#765431"/>
<path d="M30 21L30 27L-3.69283e-07 26L1 20L30 21Z" fill="#765431"/>
</g></g><g id="s20-67" transform="translate(20, 67)"><g transform="translate(-0.0, -0.0)">
<path d="M0.25 18.0024L1.5 39.2525H14.5L30.75 55.5025V29.5025V5L14.5 18.0024H0.25ZM46.5 29.5025C46.5 23.75 42.06 18.81 37.25 16.405L38.5 27.5024L37.25 42.5675C42.06 40.195 46.5 35.255 46.5 29.5025ZM38.5 0L37.25 7.695C46.6425 10.49 54 19.2 54 29.5025C54 39.805 46.6425 48.205 37.25 51L38.5 60.5C51.5325 57.5425 61.5 43.4125 61.5 29.5025C61.5 15.5925 51.5325 2.9575 38.5 0Z" fill="white"/>
</g></g></svg>