<?xml version="1.0" encoding="UTF-8"?>
<svg width="148px" height="175px" viewBox="0 0 148 175" version="1.1" xmlns="http://www.w3.org/2000/svg" xmlns:xlink="http://www.w3.org/1999/xlink">
    <!-- Generator: Sketch 48.1 (47250) - http://www.bohemiancoding.com/sketch -->
    <title>Page 1</title>
    <desc>Created with Sketch.</desc>
    <defs>
        <polygon id="path-1" points="0.0765021583 23.0735332 21.7260273 23.0735332 21.7260273 0.245491662 0.0765021583 0.245491662 0.0765021583 23.0735332"></polygon>
    </defs>
    <g id="Audience-Alt.1" stroke="none" stroke-width="1" fill="none" fill-rule="evenodd" transform="translate(-361.000000, -302.000000)">
        <g id="02.-Friends" transform="translate(316.000000, 270.000000)">
            <g id="Friends" transform="translate(39.000000, 32.000000)">
                <g id="Page-1" transform="translate(6.000000, 0.000000)">
                    <polygon id="Fill-1" fill="#02332C" points="45.7634633 60.1427741 81.3521396 68.1020699 116.48883 82.2327309 114.714427 88.6718565 79.7550173 88.3139484 47.3659094 67.5654761"></polygon>
                    <polygon id="Fill-2" fill="#41B555" points="47.3660158 67.5657444 40.0043468 79.3708079 37.3424763 123.103202 75.8506921 102.891324 79.7551237 88.3142167"></polygon>
                    <polygon id="Fill-3" fill="#02332C" points="116.488883 82.2324626 116.488883 95.3344733 114.0932 102.35473 114.714481 88.6715882"></polygon>
                    <polygon id="Fill-4" fill="#34A751" points="45.7634633 60.1427741 38.5849309 70.87465 35.6568734 114.517433 37.3429022 123.102934 40.0047727 79.3705396 47.3659094 67.5654761"></polygon>
                    <polygon id="Fill-5" fill="#34A751" points="37.3426892 123.102934 75.850905 102.891592 91.7332216 139.558656"></polygon>
                    <polygon id="Fill-6" fill="#00695D" points="79.7550705 88.3139484 75.8511712 102.891592 91.7334878 139.558656 114.0932 102.354998 114.714481 88.6718565"></polygon>
                    <polygon id="Fill-7" fill="#34A751" points="132.016532 64.4355245 122.078705 97.2573572 147.987755 70.4271308 137.517554 36.0851279"></polygon>
                    <polygon id="Fill-8" fill="#00695D" points="137.51766 36.0853962 122.078812 97.2570889 132.016106 64.4352562"></polygon>
                    <g id="Group-48" transform="translate(0.000000, 0.067074)">
                        <path d="M2.29463885,19.0262745 C2.29463885,19.4732572 0.000106474819,56.2299322 0.000106474819,56.2299322 L12.5875597,49.343824 L2.29463885,19.0262745 Z" id="Fill-9" fill="#58BA65"></path>
                        <polygon id="Fill-11" fill="#34A751" points="5.32374106e-05 56.2302005 31.3978806 77.0677473 12.5875065 49.3440923"></polygon>
                        <polygon id="Fill-13" fill="#00695D" points="2.29463885 19.0262745 15.698754 48.4493221 31.3979338 77.0680156 12.5875597 49.343824"></polygon>
                        <polygon id="Fill-15" fill="#02332C" points="30.5991065 134.215255 45.0621137 127.776129 50.2080417 135.198831"></polygon>
                        <polygon id="Fill-17" fill="#34A751" points="30.5991065 134.215255 51.982977 158.511149 50.2080417 135.198831"></polygon>
                        <polygon id="Fill-19" fill="#02332C" points="69.9061496 143.158127 67.5993727 153.532632 86.6759338 151.564942"></polygon>
                        <g id="Group-23" transform="translate(64.949640, 151.319450)">
                            <mask id="mask-2" fill="white">
                                <use xlink:href="#path-1"></use>
                            </mask>
                            <g id="Clip-22"></g>
                            <polygon id="Fill-21" fill="#34A751" mask="url(#mask-2)" points="2.64946619 2.21318111 0.0765021583 23.0738015 21.7260273 0.245491662"></polygon>
                        </g>
                        <polygon id="Fill-24" fill="#00695D" points="37.3426892 123.03586 51.4506029 134.036033 72.567754 140.296472 91.7332216 139.491582"></polygon>
                        <polygon id="Fill-26" fill="#F2F1F1" points="33.3498835 43.7095891 50.1196676 9.81456882 79.7548043 42.6364015"></polygon>
                        <polygon id="Fill-28" fill="#DEDCDC" points="50.1196676 9.81483712 103.889452 7.40016504 79.7548043 42.6366698"></polygon>
                        <polygon id="Fill-30" fill="#C9C9C9" points="103.889452 7.40016504 123.410013 39.7744785 79.7553367 42.6366698"></polygon>
                        <polygon id="Fill-32" fill="#02332C" points="33.3498835 43.7095891 78.157682 54.083557 123.409481 39.7747468 80.0018259 42.6364015"></polygon>
                        <polygon id="Fill-34" fill="#00695D" points="50.1196676 9.81483712 75.9398115 6.41658861 103.889452 7.40016504"></polygon>
                        <polygon id="Fill-36" fill="#34A751" points="45.7634633 18.6193754 45.7634633 3.64411579 48.9688878 12.1410785"></polygon>
                        <polygon id="Fill-38" fill="#00695D" points="45.7634633 3.64400847 49.4677223 11.1316383 48.9688878 12.1409712"></polygon>
                        <polygon id="Fill-40" fill="#34A751" points="103.889452 7.40016504 106.728603 0.469519571 105.344963 9.81483712"></polygon>
                        <path d="M106.722108,0.514539791 C106.722108,0.514539791 108.41346,14.9033024 108.354367,14.8051058 C108.295273,14.7074457 105.345388,9.81478346 105.345388,9.81478346 L106.722108,0.514539791 Z" id="Fill-42" fill="#00695D"></path>
                        <path d="M55.3999669,30.0618089 C55.0432763,30.9686524 53.0367583,31.0169458 50.9184417,30.1702008 C48.8006576,29.3234558 47.3728302,27.9020188 47.7295209,26.9951753 C48.0862115,26.0883318 50.0927295,26.0395018 52.211046,26.8867834 C54.3288302,27.7335284 55.7566576,29.1549654 55.3999669,30.0618089" id="Fill-44" fill="#221F1F"></path>
                        <path d="M108.96516,24.5779276 C109.473577,25.4080382 108.313534,27.0591373 106.374627,28.2654002 C104.435188,29.471663 102.451563,29.7764483 101.943145,28.9463377 C101.434728,28.1162271 102.594771,26.4656646 104.533678,25.2594017 C106.472584,24.0526023 108.456742,23.747817 108.96516,24.5779276" id="Fill-46" fill="#221F1F"></path>
                    </g>
                </g>
            </g>
        </g>
    </g>
</svg>