<?xml version="1.0" encoding="UTF-8"?>
<svg width="131px" height="167px" viewBox="0 0 131 167" version="1.1" xmlns="http://www.w3.org/2000/svg" xmlns:xlink="http://www.w3.org/1999/xlink">
    <!-- Generator: Sketch 48.2 (47327) - http://www.bohemiancoding.com/sketch -->
    <title>public</title>
    <desc>Created with Sketch.</desc>
    <defs>
        <polygon id="path-1" points="25.3649483 30.6291278 25.3649483 0.163598679 0.292674731 0.163598679 0.292674731 61.094657 25.3649483 61.094657"></polygon>
        <polygon id="path-3" points="25.3649483 30.6291278 25.3649483 0.163598679 0.292674731 0.163598679 0.292674731 61.094657 25.3649483 61.094657"></polygon>
    </defs>
    <g id="Audience-Alt.1" stroke="none" stroke-width="1" fill="none" fill-rule="evenodd" transform="translate(-657.000000, -304.000000)">
        <g id="03.-Public" transform="translate(602.000000, 270.000000)">
            <g id="Public" transform="translate(39.000000, 34.000000)">
                <g id="public" transform="translate(16.000000, 0.000000)">
                    <polygon id="Fill-1" fill="#FEFEFE" points="12.8776882 40.062777 36.438004 9.64641599 58.9739583 35.4855576"></polygon>
                    <polygon id="Fill-2" fill="#DDDDDC" points="91.4608535 15.257201 36.438004 9.64641599 58.9739583 35.4855576"></polygon>
                    <polygon id="Fill-3" fill="#E1E2E1" points="106.240927 49.6601724 58.9739583 35.4855576 91.4608535 15.257201"></polygon>
                    <polygon id="Fill-4" fill="#924F22" points="12.8776882 40.062777 20.0482191 46.7071277 48.1449933 58.9622634 58.2422715 57.0427843 91.4608535 57.1904365 101.265457 55.1233052 106.240927 49.6601724 58.9739583 35.4855576"></polygon>
                    <polygon id="Fill-5" fill="#ECC01C" points="17.7556979 75.8929549 21.0728733 64.1794076 57.2738108 57.2273496 57.2738108 68.4117113"></polygon>
                    <polygon id="Fill-6" fill="#F68C1E" points="99.8998367 68.4120066 57.2735181 68.4120066 57.2735181 57.2270543 95.314209 57.2270543"></polygon>
                    <polygon id="Fill-7" fill="#F7BA16" points="17.7556979 75.8929549 31.7063317 118.022863 92.7781825 112.116774 57.2738108 68.4117113"></polygon>
                    <polygon id="Fill-8" fill="#F9A42D" points="99.8998367 68.4120066 92.7778898 112.117069 57.2735181 68.4120066"></polygon>
                    <polygon id="Fill-9" fill="#F68C1E" points="17.7556979 75.8929549 16.1945709 83.1125587 30.14579 127.66987 31.7063317 118.022863"></polygon>
                    <polygon id="Fill-10" fill="#924F22" points="95.314209 57.2270543 99.8998367 63.3918305 104.875307 75.1053778 98.436463 120.680899 92.7778898 112.117069 98.8263058 65.7944277"></polygon>
                    <polygon id="Fill-11" fill="#F7BA16" points="0 39.5703272 12.3895067 64.6717982 5.26814516 38.0943955 0.878024194 10.3351842"></polygon>
                    <polygon id="Fill-12" fill="#F68C1E" points="12.3897994 64.6713848 14.9261186 43.2127898 0.877731519 10.3353613 5.26785249 38.093982"></polygon>
                    <g id="Group-33" transform="translate(27.511425, 0.427010)">
                        <g id="Group-15" transform="translate(77.851478, 0.000000)">
                            <mask id="mask-2" fill="white">
                                <use xlink:href="#path-1"></use>
                            </mask>
                            <g id="Clip-14"></g>
                            <path d="M0.292674731,61.094657 C0.292674731,60.7993525 6.24392272,28.9064692 6.24392272,28.9064692 L25.3649483,0.163303375 L14.0483871,32.0319718 L0.292674731,61.094657 Z" id="Fill-13" fill="#F68C1E" mask="url(#mask-2)"></path>
                        </g>
                        <g id="Group-18" transform="translate(77.851478, 0.000000)">
                            <mask id="mask-4" fill="white">
                                <use xlink:href="#path-3"></use>
                            </mask>
                            <g id="Clip-17"></g>
                            <polygon id="Fill-16" fill="#F7BA16" mask="url(#mask-4)" points="25.3649483 0.163303375 19.2187789 33.3360363 0.292674731 61.094657 14.0483871 32.0319718"></polygon>
                        </g>
                        <polygon id="Fill-21" fill="#F9A42D" points="3.33976989 121.694088 18.2257921 129.102096 56.6323263 125.422012 70.9248042 120.254184 65.2662309 111.690354 4.19496546 117.596444"></polygon>
                        <polygon id="Fill-23" fill="#F7BA16" points="65.2664651 160.119993 47.9986559 125.864674 65.2664651 113.166581"></polygon>
                        <path d="M10.9530006,27.583387 C9.32280235,29.7521031 6.64892601,30.4750084 4.98126539,29.1981119 C3.31301942,27.9218059 3.28258125,25.1288162 4.9127795,22.9606908 C6.54297776,20.7919747 9.2168541,20.0690693 10.8845147,21.3453753 C12.5527607,22.6222718 12.5831989,25.4152616 10.9530006,27.583387" id="Fill-25" fill="#020303"></path>
                        <path d="M60.0383578,33.1895062 C61.6679707,35.3582223 64.3424324,36.0811277 66.010093,34.8042311 C67.678339,33.5279252 67.7087772,30.7349354 66.0779935,28.56681 C64.4483806,26.3980939 61.7745043,25.6751886 60.1062583,26.9514945 C58.4385977,28.228391 58.4081595,31.0213808 60.0383578,33.1895062" id="Fill-27" fill="#020303"></path>
                        <polygon id="Fill-29" fill="#924F22" points="2.19506048 126.159978 4.1951996 117.596148 24.364586 128.513555 3.9148172 130.441893"></polygon>
                        <polygon id="Fill-31" fill="#F7BA16" points="0.445860685 120.253888 21.5114171 130.737197 10.0034467 165.961115"></polygon>
                    </g>
                </g>
            </g>
        </g>
    </g>
</svg>
