<?xml version="1.0" encoding="UTF-8"?>
<svg width="80px" height="54px" viewBox="0 0 80 54" version="1.1" xmlns="http://www.w3.org/2000/svg" xmlns:xlink="http://www.w3.org/1999/xlink">
    <!-- Generator: Sketch 42 (36781) - http://www.bohemiancoding.com/sketch -->
    <title>Page 1</title>
    <desc>Created with Sketch.</desc>
    <defs>
        <polygon id="path-1" points="3.49585366 0.370658348 0.259268293 0.370658348 0.259268293 10.3778515 3.49585366 10.3778515 3.49585366 0.370658348"></polygon>
    </defs>
    <g id="Symbols" stroke="none" stroke-width="1" fill="none" fill-rule="evenodd">
        <g id="MM-Legen-2" transform="translate(0.000000, -13.000000)">
            <g id="Page-1" transform="translate(0.000000, 3.000000)">
                <g transform="translate(0.000000, 10.000000)">
                    <polygon id="Fill-1" fill="#F4F6F6" points="0 38.1992051 39.9185366 50.9747893 19.5121951 11.2731079"></polygon>
                    <g id="Group-23" transform="translate(0.000000, 0.114497)">
                        <path d="M67.3985366,17.1422208 C67.3170732,17.3847983 39.9185366,50.8604868 39.9185366,50.8604868 L19.5121951,11.1588054 L67.3985366,17.1422208 Z" id="Fill-2" fill="#DFE0E0"></path>
                        <polygon id="Fill-4" fill="#C7C7C8" points="79.5936585 47.3026033 39.9185366 50.8602442 67.3985366 17.1419783"></polygon>
                        <polygon id="Fill-6" fill="#3863AD" points="19.5121951 11.1585628 43.9839024 7.76247849 67.3985366 17.1419783"></polygon>
                        <polygon id="Fill-8" fill="#299AD6" points="21.140439 10.9325777 28.3740976 0.370755379 25.1370244 10.3780456"></polygon>
                        <g id="Group-12" transform="translate(24.878049, 0.000000)">
                            <mask id="mask-2" fill="white">
                                <use xlink:href="#path-1"></use>
                            </mask>
                            <g id="Clip-11"></g>
                            <path d="M1.81878049,10.1614725 C1.78853659,9.70300108 3.49585366,0.370561317 3.49585366,0.370561317 L0.259268293,10.3778515 L1.81878049,10.1614725 Z" id="Fill-10" fill="#3863AD" mask="url(#mask-2)"></path>
                        </g>
                        <polygon id="Fill-13" fill="#3863AD" points="60.4063415 4.0430384 65.1014634 16.2223671 61.6565854 14.8421014"></polygon>
                        <polygon id="Fill-15" fill="#299AD6" points="59.7560976 14.0806023 60.4063415 4.04323247 61.6565854 14.8418103"></polygon>
                        <polygon id="Fill-17" fill="#0E1F39" points="0 38.0846601 38.9429268 53.8521945 79.5936585 47.3026033 39.9185366 50.8602442"></polygon>
                        <path d="M19.8728293,31.0148372 C19.1103902,33.5148405 16.9240488,35.0683065 14.9903902,34.4846651 C13.0572195,33.9010238 12.1079512,31.4015057 12.870878,28.9019876 C13.6333171,26.4019844 15.8191707,24.8485184 17.7528293,25.4316746 C19.686,26.0153159 20.6352683,28.514834 19.8728293,31.0148372" id="Fill-19" fill="#221F1F"></path>
                        <path d="M67.951122,34.5540423 C68.4701463,37.0821845 67.3067317,39.4536217 65.3516098,39.8509635 C63.3964878,40.2487906 61.3901463,38.5216391 60.8701463,35.993982 C60.3506341,33.4658398 61.5145366,31.0944026 63.4696585,30.6965756 C65.4247805,30.2987486 67.4316098,32.0263852 67.951122,34.5540423" id="Fill-21" fill="#221F1F"></path>
                    </g>
                </g>
            </g>
        </g>
    </g>
</svg>