<?xml version="1.0" encoding="UTF-8"?>
<svg width="64px" height="64px" viewBox="0 0 64 64" version="1.1" xmlns="http://www.w3.org/2000/svg" xmlns:xlink="http://www.w3.org/1999/xlink">
    <!-- Generator: Sketch 41.2 (35397) - http://www.bohemiancoding.com/sketch -->
    <title>safe</title>
    <desc>Created with Sketch.</desc>
    <defs>
        <polygon id="path-1" points="53.1705525 61.5097276 0 61.5097276 0 30.8237821 0 0.137836576 53.1705525 0.137836576"></polygon>
    </defs>
    <g id="MM" stroke="none" stroke-width="1" fill="none" fill-rule="evenodd">
        <g id="3-Desktop-CARD" transform="translate(-870.000000, -416.000000)">
            <g id="UI" transform="translate(0.000000, 95.000000)">
                <g id="Right" transform="translate(677.000000, 178.000000)">
                    <g id="Safe" transform="translate(185.000000, 134.000000)">
                        <g id="safe" transform="translate(8.000000, 9.000000)">
                            <polygon id="Fill-1" fill="#30302F" points="20.4650335 2.49027237e-05 -2.49027237e-05 2.57347237 53.1705276 4.39934008 50.8463564 63.5848965 60.3093914 47.5642272 63.1973603 1.28649961"></polygon>
                            <g id="Group-13" transform="translate(0.000000, 2.435486)">
                                <g id="Group-4">
                                    <mask id="mask-2" fill="white">
                                        <use xlink:href="#path-1"></use>
                                    </mask>
                                    <g id="Clip-3"></g>
                                    <path d="M0,0.137836576 C0,0.137836576 2.68028016,51.8525759 2.86705058,51.8525759 C3.05382101,51.8525759 50.6802802,61.5098521 50.6802802,61.5098521 L53.1705525,1.96395331 L0,0.137836576 Z" id="Fill-2" fill="#8B8B8B" mask="url(#mask-2)"></path>
                                </g>
                                <polygon id="Fill-5" fill="#484848" points="4.70208249 3.85245136 48.4686195 6.21821012 47.0367128 57.0197665 6.88107082 49.4244358"></polygon>
                                <polygon id="Fill-7" fill="#8B8B8B" points="5.97991595 7.96140078 42.9604607 10.1403891 42.1511222 54.9652918 7.84762023 48.6773541"></polygon>
                                <polygon id="Fill-9" fill="#373737" points="5.97991595 7.98219455 8.63628949 7.48414008 44.2668576 9.64245914 42.9604607 10.1405136"></polygon>
                                <polygon id="Fill-11" fill="#373737" points="42.9604607 10.1403891 44.2668576 9.64233463 43.329021 53.513214 42.1511222 54.9652918"></polygon>
                            </g>
                            <polygon id="Fill-17" points="43.931144 27.7735097 45.9537432 27.8233152 46.1664125 19.1721089 44.1438132 19.1223035"></polygon>
                            <polygon id="Fill-23" points="43.337214 51.9256654 45.3598132 51.9752218 45.5722335 43.3242646 43.5496342 43.2742101"></polygon>
                            <g id="Group-35" transform="translate(16.684825, 27.338210)">
                                <path d="M13.513737,6.2152965 C14.099449,10.0411019 11.7827486,13.5700669 8.33944903,14.0970086 C4.89590039,14.6241992 1.62990817,11.9498957 1.04419611,8.12409027 C0.458484047,4.2980358 2.77518444,0.769319844 6.21848405,0.242129183 C9.66203268,-0.285061479 12.9280249,2.38924202 13.513737,6.2152965" id="Fill-27" fill="#2C2C2C"></path>
                                <path d="M12.723972,6.90134163 C13.2080809,10.7415907 10.7989914,14.2078008 7.34299144,14.6435984 C3.88674241,15.0793961 0.692470039,12.3196763 0.208361089,8.47967626 C-0.275996887,4.63942724 2.13334163,1.17321712 5.58934163,0.737419455 C9.04559066,0.30162179 12.239863,3.06134163 12.723972,6.90134163" id="Fill-29" fill="#444445"></path>
                                <path d="M10.3841121,7.09077665 C10.7521743,9.4948856 9.29636109,11.7127222 7.13256342,12.0439284 C4.96851673,12.3751346 2.91603424,10.6944498 2.54822101,8.29009183 C2.18015875,5.88598288 3.63597198,3.66839533 5.79976965,3.33718911 C7.96356732,3.00598288 10.0160498,4.68641868 10.3841121,7.09077665" id="Fill-31" fill="#3D3D3D"></path>
                                <path d="M9.60114553,7.91762179 C9.90545681,10.3306957 8.39137121,12.508937 6.21960467,12.7828669 C4.04783813,13.0567969 2.04042957,11.3225712 1.73611829,8.90924825 C1.431807,6.49617432 2.94564358,4.31793307 5.11765914,4.04400311 C7.28942568,3.77007315 9.29683424,5.50454786 9.60114553,7.91762179" id="Fill-33" fill="#8E8E8E"></path>
                            </g>
                        </g>
                    </g>
                </g>
            </g>
        </g>
    </g>
</svg>