<?xml version="1.0" encoding="utf-8"?>
<!-- Generator: Adobe Illustrator 21.0.2, SVG Export Plug-In . SVG Version: 6.00 Build 0)  -->
<svg version="1.1" id="Layer_1" xmlns="http://www.w3.org/2000/svg" xmlns:xlink="http://www.w3.org/1999/xlink" x="0px" y="0px"
	 viewBox="0 0 134 131" enable-background="new 0 0 134 131" xml:space="preserve">
<title>Group 4</title>
<desc>Created with Sketch.</desc>
<g id="Level-2:-Card-overlay" transform="translate(-653.000000, -435.000000)">
	<g id="Legend-Alt.2" transform="translate(470.000000, 116.000000)">
		<g id="Group-4" transform="translate(183.000000, 319.000000)">
			<g id="Page-1-Copy-10" transform="translate(27.000000, 48.000000)">
				<g id="Oval">
					<g>
						<circle id="path-1" fill="#F6F6F6" cx="40" cy="40" r="40"/>
					</g>
					<circle fill="none" stroke="#FFFFFF" stroke-width="3" cx="40" cy="40" r="41.5"/>
				</g>
				
					<g id="Page-1" transform="translate(40.000000, 40.000000) rotate(-360.000000) translate(-40.000000, -40.000000) translate(0.000000, 13.000000)">
					<polygon id="Fill-1" fill="#F4F5F5" points="0,38.1 40,51 19.6,11 					"/>
					<g id="Group-23">
						<path id="Fill-2" fill="#DFE0E0" d="M67.4,17.1c-0.1,0.2-27.5,33.7-27.5,33.7L19.5,11.2L67.4,17.1z"/>
						<polygon id="Fill-4" fill="#C7C7C8" points="79.6,47.3 39.9,50.9 67.4,17.1 						"/>
						<polygon id="Fill-6" fill="#545454" points="19.5,11.2 44,7.8 67.4,17.1 						"/>
						<polygon id="Fill-8" fill="#757575" points="21.1,10.9 28.4,0.4 25.1,10.4 						"/>
						<g id="Group-12" transform="translate(24.878049, 0.000000)">
							<g id="Clip-11">
							</g>
							<defs>
								<filter id="Adobe_OpacityMaskFilter" filterUnits="userSpaceOnUse" x="0.3" y="0.4" width="3.2" height="10">
									<feColorMatrix  type="matrix" values="1 0 0 0 0  0 1 0 0 0  0 0 1 0 0  0 0 0 1 0"/>
								</filter>
							</defs>
							<mask maskUnits="userSpaceOnUse" x="0.3" y="0.4" width="3.2" height="10" id="mask-3">
								<g filter="url(#Adobe_OpacityMaskFilter)">
									<polygon id="path-2" fill="#FFFFFF" points="3.5,0.4 0.3,0.4 0.3,10.4 3.5,10.4 									"/>
								</g>
							</mask>
							<path id="Fill-10" mask="url(#mask-3)" fill="#3863AD" d="M1.8,10.2c0-0.5,1.7-9.8,1.7-9.8l-3.2,10L1.8,10.2z"/>
						</g>
						<polygon id="Fill-13" fill="#545454" points="60.4,4 65.1,16.2 61.7,14.8 						"/>
						<polygon id="Fill-15" fill="#757575" points="59.8,14.1 60.4,4 61.7,14.8 						"/>
						<polygon id="Fill-17" fill="#414141" points="0,38.1 38.9,53.9 79.6,47.3 39.9,50.9 						"/>
						<path id="Fill-19" fill="#221F1F" d="M19.9,31c-0.8,2.5-2.9,4.1-4.9,3.5c-1.9-0.6-2.9-3.1-2.1-5.6c0.8-2.5,2.9-4.1,4.9-3.5
							C19.7,26,20.6,28.5,19.9,31"/>
						<path id="Fill-21" fill="#221F1F" d="M68,34.6c0.5,2.5-0.6,4.9-2.6,5.3c-2,0.4-4-1.3-4.5-3.9c-0.5-2.5,0.6-4.9,2.6-5.3
							C65.4,30.3,67.4,32,68,34.6"/>
					</g>
				</g>
			</g>
			<g id="Group-2" transform="translate(96.000000, 20.000000)">
				<circle id="Oval_1_" fill="#FABB05" cx="19" cy="19" r="19"/>
				<text transform="matrix(1 0 0 1 11 31)" fill="#F6F6F6" font-family="'GoogleSans-Bold'" font-size="32px">?</text>
			</g>
			<g id="Group-3" transform="translate(48.000000, 0.000000)">
				<circle id="Oval_2_" fill="#4285F4" cx="19" cy="19" r="19"/>
				<text transform="matrix(1 0 0 1 11 31)" fill="#F6F6F6" font-family="'GoogleSans-Bold'" font-size="32px">?</text>
			</g>
			<g id="Group" transform="translate(0.000000, 20.000000)">
				<circle id="Oval_3_" fill="#34A853" cx="19" cy="19" r="19"/>
				<text transform="matrix(1 0 0 1 11 31)" fill="#F6F6F6" font-family="'GoogleSans-Bold'" font-size="32px">?</text>
			</g>
		</g>
	</g>
</g>
</svg>
