<?xml version="1.0" encoding="UTF-8"?>
<svg width="61px" height="80px" viewBox="0 0 61 80" version="1.1" xmlns="http://www.w3.org/2000/svg" xmlns:xlink="http://www.w3.org/1999/xlink">
    <!-- Generator: Sketch 41.2 (35397) - http://www.bohemiancoding.com/sketch -->
    <title>trash</title>
    <desc>Created with Sketch.</desc>
    <defs>
        <polygon id="path-1" points="2.1934726e-20 0.173410405 2.1934726e-20 21.9075145 32.1892948 21.9075145 32.1892948 0.173410405 0 0.173410405"></polygon>
        <polygon id="path-3" points="0 0.0795375723 0 15.6069364 35.0408555 15.6069364 35.0408555 0.0795375723 6.26706458e-21 0.0795375723"></polygon>
        <polygon id="path-5" points="16.6208555 0.151676301 0.127676301 0.151676301 0.127676301 4.58813873 16.6208555 4.58813873 16.6208555 0.151676301"></polygon>
    </defs>
    <g id="MM" stroke="none" stroke-width="1" fill="none" fill-rule="evenodd">
        <g id="3-Desktop-CARD" transform="translate(-872.000000, -315.000000)">
            <g id="UI" transform="translate(0.000000, 95.000000)">
                <g id="Right" transform="translate(677.000000, 178.000000)">
                    <g id="Trash" transform="translate(185.000000, 42.000000)">
                        <g id="trash" transform="translate(10.000000, 0.000000)">
                            <g id="Group-3" transform="translate(0.000000, 13.952370)">
                                <mask id="mask-2" fill="white">
                                    <use xlink:href="#path-1"></use>
                                </mask>
                                <g id="Clip-2"></g>
                                <path d="M0.802011561,9.53757225 L-6.93641618e-05,0.173410405 C-6.93641618e-05,0.173410405 32.1892948,11.849711 32.1892948,11.6763006 L32.1892948,21.9075145 L0.802011561,9.53757225 Z" id="Fill-1" fill="#929292" mask="url(#mask-2)"></path>
                            </g>
                            <polygon id="Fill-4" fill="#515050" points="60.1011561 13.2587283 59.1256647 22.4494798 32.1892486 35.8598844 32.1892486 25.6286705"></polygon>
                            <polygon id="Fill-6" fill="#676767" points="0 14.1257803 28.5477457 5.22404624 60.1010405 13.2587283 32.1893642 25.6286705"></polygon>
                            <polygon id="Fill-8" fill="#7E7E7E" points="5.69489017 25.4182197 11.7846012 70.1372948 30.3395145 79.8482775 30.3395145 35.1308208"></polygon>
                            <polygon id="Fill-10" fill="#575757" points="30.3395838 79.8483237 48.3164624 70.137341 54.8877919 24.5593064 32.1892948 35.8598844 30.3395838 35.1308671"></polygon>
                            <path d="M14.6555376,63.5863584 C14.5785434,63.2779191 11.8809711,30.137341 11.8809711,30.137341 L13.8076763,31.0621965 L16.6594682,64.5882081 L14.6555376,63.5863584 Z" id="Fill-12" fill="#323232"></path>
                            <polygon id="Fill-14" fill="#323232" points="20.975422 32.8347977 23.2105665 33.682659 25.2914913 68.5959538 23.133341 67.5168786"></polygon>
                            <path d="M34.8674451,68.5958382 L37.3051329,34.0883237 L39.568948,33.0321387 C39.568948,33.0321387 37.1795838,67.979422 37.2181965,67.7482081 C37.2568092,67.5169942 34.8674451,68.5958382 34.8674451,68.5958382" id="Fill-16" fill="#30302F"></path>
                            <polygon id="Fill-18" fill="#30302F" points="46.4859422 31.12 48.3934566 30.4841618 45.4454798 63.6055491 43.5957688 64.5882081"></polygon>
                            <g id="Group-22" transform="translate(0.000000, 10.021734)">
                                <mask id="mask-4" fill="white">
                                    <use xlink:href="#path-3"></use>
                                </mask>
                                <g id="Clip-21"></g>
                                <path d="M32.2470983,15.6069364 C32.2470983,15.4913295 35.0408555,4.62682081 35.0408555,4.62682081 L19.5881387,0.0795375723 L-6.93641618e-05,4.10404624 L32.2470983,15.6069364 Z" id="Fill-20" fill="#626363" mask="url(#mask-4)"></path>
                            </g>
                            <path d="M0,14.1257803 C0,13.836763 28.5477457,5.22404624 28.5477457,5.22404624 L60.1010405,13.2587283 L41.6305202,12.1052023 L26.3317919,7.9817341 L19.5882081,10.1012717 L0,14.1257803 Z" id="Fill-23" fill="#323232"></path>
                            <polygon id="Fill-25" fill="#383838" points="19.5881387 10.1013179 35.0408555 14.6486012 41.6304509 12.1052486 26.3319538 7.98178035"></polygon>
                            <path d="M22.4783121,10.0627052 C22.4783121,9.90848555 22.3240925,1.23796532 22.3240925,1.23796532 L35.2336879,4.66779191 L35.0408555,13.569526 L31.8810867,12.7602775 L31.9580809,7.40374566 L25.2914913,5.6310289 L25.2914913,10.833341 L22.4783121,10.0627052 Z" id="Fill-27" fill="#6D6D6D"></path>
                            <g id="Group-31" transform="translate(22.196532, 0.079538)">
                                <mask id="mask-6" fill="white">
                                    <use xlink:href="#path-5"></use>
                                </mask>
                                <g id="Clip-30"></g>
                                <polygon id="Fill-29" fill="#515050" mask="url(#mask-6)" points="0.127676301 1.15854335 3.86571098 0.151606936 16.6208555 3.39368786 13.0370405 4.58813873"></polygon>
                            </g>
                            <polygon id="Fill-32" fill="#464646" points="35.2336879 4.66779191 35.0408555 13.569526 38.586289 12.2978497 38.8175029 3.47310983"></polygon>
                            <polygon id="Fill-34" fill="#232323" points="25.2913757 10.8334566 28.7787746 9.60039306 28.7787746 6.55854335 25.2913757 5.63114451"></polygon>
                        </g>
                    </g>
                </g>
            </g>
        </g>
    </g>
</svg>