<?xml version="1.0" encoding="UTF-8"?>
<svg width="84px" height="57px" viewBox="0 0 84 57" version="1.1" xmlns="http://www.w3.org/2000/svg" xmlns:xlink="http://www.w3.org/1999/xlink">
    <!-- Generator: Sketch 42 (36781) - http://www.bohemiancoding.com/sketch -->
    <title>Page 1</title>
    <desc>Created with Sketch.</desc>
    <defs>
        <polygon id="path-1" points="83.5733415 8.54023866 83.5733415 16.8254444 0 16.8254444 0 8.54023866 0 0.255032948 83.5733415 0.255032948 83.5733415 8.54023866"></polygon>
    </defs>
    <g id="Symbols" stroke="none" stroke-width="1" fill="none" fill-rule="evenodd">
        <g id="MM-Legen-1" transform="translate(0.000000, -9.000000)">
            <g id="Page-1" transform="translate(0.000000, 9.000000)">
                <polygon id="Fill-1" fill="#C7C7C8" points="41.6583659 53.5707873 83.5728293 40.1445925 83.5728293 40.1440827 63.0855366 11.8472543"></polygon>
                <g id="Group-23" transform="translate(0.000000, 0.120327)">
                    <path d="M12.804878,18.0150543 C12.8904146,18.2699853 41.6583659,53.4504599 41.6583659,53.4504599 L63.0855366,11.7269268 L12.804878,18.0150543 Z" id="Fill-2" fill="#DFE0E0"></path>
                    <polygon id="Fill-4" fill="#F4F6F6" points="0 49.7116422 41.6583659 53.4504599 12.804878 18.0150543"></polygon>
                    <polygon id="Fill-6" fill="#F9A42C" points="63.0855366 11.7269268 37.3902439 8.15789319 12.804878 18.0150543"></polygon>
                    <polygon id="Fill-8" fill="#F78C1E" points="61.3753683 11.4893822 53.780539 0.389687489 57.1794659 10.9061001"></polygon>
                    <path d="M55.5411585,10.6790586 C55.5729146,10.197239 53.7802317,0.38953453 53.7802317,0.38953453 L57.1791585,10.906457 L55.5411585,10.6790586 Z" id="Fill-10" fill="#F8CA3C"></path>
                    <polygon id="Fill-12" fill="#F8CA3C" points="20.1461707 4.24878161 15.2162927 17.048356 18.8334146 15.5977988"></polygon>
                    <polygon id="Fill-14" fill="#F78C1E" points="20.829439 14.7977744 20.1461707 4.24873062 18.8339268 15.5977478"></polygon>
                    <g id="Group-18" transform="translate(0.000000, 39.769232)">
                        <mask id="mask-2" fill="white">
                            <use xlink:href="#path-1"></use>
                        </mask>
                        <g id="Clip-17"></g>
                        <polygon id="Fill-16" fill="#63300E" mask="url(#mask-2)" points="83.5733415 0.255032948 42.6827561 16.8255464 0 9.94241001 41.6583659 13.6812277"></polygon>
                    </g>
                    <path d="M62.7068707,32.5944038 C63.5074317,35.2217224 65.802578,36.8543004 67.8329195,36.2409365 C69.863261,35.6275726 70.8594805,33.0007638 70.0589195,30.373955 C69.2578463,27.7466364 66.9632122,26.1140584 64.9328707,26.7269125 C62.9025293,27.3402764 61.9063098,29.9670852 62.7068707,32.5944038" id="Fill-19" fill="#221F1F"></path>
                    <path d="M12.2246634,36.3137958 C11.6791756,38.9701765 12.900761,41.4628916 14.9541512,41.8804685 C17.0070293,42.2985553 19.1136878,40.4834468 19.6591756,37.8265562 C20.2046634,35.1701754 18.9825659,32.6774603 16.9302,32.2598834 C14.8768098,31.8417966 12.7701512,33.657415 12.2246634,36.3137958" id="Fill-21" fill="#221F1F"></path>
                </g>
            </g>
        </g>
    </g>
</svg>