<svg width="127" height="127" xmlns="http://www.w3.org/2000/svg" viewBox="0 0 126.26 120.57"><title>Asset 17</title><g id="Layer_2" data-name="Layer 2"><g id="Icons"><g id="_Group_" data-name="&lt;Group&gt;"><g id="_Group_2" data-name="&lt;Group&gt;"><polygon id="_Path_" data-name="&lt;Path&gt;" points="121.41 40.3 42.76 0 32.25 5.22 110.9 45.51 121.41 40.3" fill="#4285f4"/></g><g id="_Group_3" data-name="&lt;Group&gt;"><polygon id="_Path_2" data-name="&lt;Path&gt;" points="115.75 48 32.25 5.22 27.21 7.72 27.21 72.24 31.02 79.23 111.7 120.56 115.75 118.56 115.75 48" fill="#76d1ff"/></g><g id="_Group_4" data-name="&lt;Group&gt;"><polygon id="_Path_3" data-name="&lt;Path&gt;" points="72.64 82.61 115.75 54.4 115.75 48 110.28 45.2 73.27 69.49 37.56 7.94 32.25 5.22 27.21 7.72 27.21 11.42 66.05 78.36 72.64 82.61" fill="#4285f4"/></g><g id="_Group_5" data-name="&lt;Group&gt;"><polygon id="_Path_4" data-name="&lt;Path&gt;" points="126.26 49.88 115.75 55.1 115.75 118.56 126.26 113.34 126.26 49.88" fill="#0250c1"/></g><g id="_Group_6" data-name="&lt;Group&gt;"><polygon id="_Path_5" data-name="&lt;Path&gt;" points="121.41 40.3 110.9 45.51 115.75 55.1 126.26 49.88 121.41 40.3" fill="#76d1ff"/></g><g id="_Group_7" data-name="&lt;Group&gt;"><polygon id="_Path_6" data-name="&lt;Path&gt;" points="27.21 68.95 27.21 72.24 30.97 79.13 54.57 65.68 49.2 56.42 27.21 68.95" fill="#4285f4"/><polygon id="_Path_7" data-name="&lt;Path&gt;" points="107.75 118.54 111.7 120.57 115.75 118.56 115.75 111.14 92.63 73.85 83.68 79.72 107.75 118.54" fill="#4285f4"/></g><g id="_Group_8" data-name="&lt;Group&gt;"><polygon id="_Path_8" data-name="&lt;Path&gt;" points="8.18 73.41 16.22 90.54 37.4 101.48 45.95 92.21 45.95 73.65 8.18 54.15 8.18 73.41" fill="#ed8c03"/><polygon id="_Path_9" data-name="&lt;Path&gt;" points="0 77.57 8.04 94.7 29.22 105.64 37.77 96.37 37.77 77.81 0 58.31 0 77.57" fill="#fabb05"/><polygon id="_Path_10" data-name="&lt;Path&gt;" points="0 58.31 37.77 77.81 45.95 73.65 8.18 54.15 0 58.31" fill="#ffdf7b"/><polygon id="_Path_11" data-name="&lt;Path&gt;" points="37.77 96.37 29.22 105.64 37.4 101.48 45.95 92.21 37.77 96.37" fill="#ffdf7b"/><g id="_Group_9" data-name="&lt;Group&gt;"><g id="_Group_10" data-name="&lt;Group&gt;"><g id="_Group_11" data-name="&lt;Group&gt;"><polygon id="_Path_12" data-name="&lt;Path&gt;" points="9.33 61.56 9.33 61.57 9.33 61.57 9.33 61.56" fill="#fabb05"/><polygon id="_Path_13" data-name="&lt;Path&gt;" points="9.33 61.56 14.76 58.74 14.77 24.21 9.33 27.02 9.33 61.56" fill="#efa30a"/><polygon id="_Path_14" data-name="&lt;Path&gt;" points="8.44 26.56 9.33 27.02 14.77 24.21 13.88 23.75 8.44 26.56" fill="#ffdf7b"/></g><g id="_Group_12" data-name="&lt;Group&gt;"><polygon id="_Path_15" data-name="&lt;Path&gt;" points="36.25 75.57 36.25 75.57 36.25 75.57 36.25 75.57" fill="#fabb05"/><polygon id="_Path_16" data-name="&lt;Path&gt;" points="36.25 46.56 36.25 46.56 36.25 75.57 41.69 72.74 41.69 43.88 36.25 46.56" fill="#ed8c03"/><polygon id="_Path_17" data-name="&lt;Path&gt;" points="36.64 35.63 36.25 35.43 30.82 38.23 31.25 38.45 31.23 38.42 36.64 35.63" fill="#ffdf7b"/></g><polygon id="_Path_18" data-name="&lt;Path&gt;" points="36.66 35.62 13.86 23.76 8.43 26.56 31.23 38.42 31.23 38.42 36.66 35.62" fill="#ffdf7b"/></g><polygon id="_Path_19" data-name="&lt;Path&gt;" points="31.23 38.42 36.66 35.62 41.69 43.88 36.25 46.56 31.23 38.42" fill="#ffd357"/><polygon id="_Path_20" data-name="&lt;Path&gt;" points="36.25 46.56 31.25 38.45 31.24 38.45 31.23 38.42 8.44 26.56 8.43 26.56 8.43 26.56 3.9 28.9 3.9 58.74 9.33 61.57 9.33 61.56 9.33 37.7 11.35 36.66 29.08 45.98 30.82 49.74 30.82 72.74 36.25 75.57 36.25 75.57 36.25 46.56 36.25 46.56 36.25 46.56" fill="#fabb05"/></g></g></g></g></g></svg>