<svg width="127" height="127" xmlns="http://www.w3.org/2000/svg" viewBox="0 0 175.69 109.56"><title>Asset 18</title><g id="Layer_2" data-name="Layer 2"><g id="Icons"><g id="_Group_" data-name="&lt;Group&gt;"><polygon id="_Path_" data-name="&lt;Path&gt;" points="33.55 81.52 87.84 109.56 107.13 99.6 52.83 71.56 33.55 81.52" fill="#72d37b"/><polygon id="_Path_2" data-name="&lt;Path&gt;" points="123.31 91.25 175.69 64.2 121.39 36.16 69.01 63.21 123.31 91.25" fill="#72d37b"/><polygon id="_Path_3" data-name="&lt;Path&gt;" points="87.85 18.84 0 64.2 17.36 73.16 105.21 27.81 87.85 18.84" fill="#72d37b"/><polygon id="_Path_4" data-name="&lt;Path&gt;" points="69.01 63.21 121.39 36.16 105.21 27.81 17.36 73.16 33.55 81.52 52.83 71.56 107.13 99.6 123.31 91.25 69.01 63.21" fill="#ffdf7b"/><polygon id="_Path_5" data-name="&lt;Path&gt;" points="82.7 63.7 100.7 54.41 118.7 63.7 100.7 73 82.7 63.7" fill="#34a853"/><polygon id="_Path_6" data-name="&lt;Path&gt;" points="41.33 81.85 52.61 76.02 63.89 81.85 52.61 87.67 41.33 81.85" fill="#34a853"/><polygon id="_Path_7" data-name="&lt;Path&gt;" points="55.82 89.32 67.1 83.49 78.38 89.32 67.1 95.14 55.82 89.32" fill="#34a853"/><polygon id="_Path_8" data-name="&lt;Path&gt;" points="70.28 96.8 81.56 90.97 102.48 101.89 91.2 107.72 70.28 96.8" fill="#34a853"/><polygon id="_Path_9" data-name="&lt;Path&gt;" points="106.84 51.25 124.83 41.95 142.83 51.25 124.84 60.54 106.84 51.25" fill="#34a853"/><polygon id="_Path_10" data-name="&lt;Path&gt;" points="105.31 76.02 123.31 85.32 166.16 63.29 148.16 54 105.31 76.02" fill="#34a853"/><polygon id="_Path_11" data-name="&lt;Path&gt;" points="6.25 64.4 17.15 70.03 43.11 56.69 32.21 51.06 6.25 64.4" fill="#34a853"/><polygon id="_Path_12" data-name="&lt;Path&gt;" points="37.39 48.37 48.29 54 74.25 40.66 63.34 35.03 37.39 48.37" fill="#34a853"/><g id="_Group_2" data-name="&lt;Group&gt;"><g id="_Group_3" data-name="&lt;Group&gt;"><polygon id="_Path_13" data-name="&lt;Path&gt;" points="107.01 46.08 87.53 70.16 94.08 52.8 107.01 46.08" fill="#ba0909"/><polygon id="_Path_14" data-name="&lt;Path&gt;" points="94.08 52.8 66.49 38.58 87.53 70.16 94.08 52.8" fill="#f4544d"/></g><g id="_Group_4" data-name="&lt;Group&gt;"><g id="_Group_5" data-name="&lt;Group&gt;"><polygon id="_Path_15" data-name="&lt;Path&gt;" points="84.7 0 71.77 6.75 89.24 15.77 89.23 15.74 102.14 9.01 84.7 0" fill="#ea4335"/><polygon id="_Path_16" data-name="&lt;Path&gt;" points="89.24 15.77 71.77 6.75 66.49 9.47 66.49 38.56 94.08 52.8 94.08 23.79 94.08 23.79 89.24 15.77" fill="#ff9a83"/><polygon id="_Path_17" data-name="&lt;Path&gt;" points="94.08 23.79 94.08 52.8 107.01 46.06 107.01 16.52 94.08 23.79" fill="#d31111"/></g></g><polygon id="_Path_18" data-name="&lt;Path&gt;" points="102.14 9.01 89.24 15.77 94.08 23.79 107.01 16.52 102.14 9.01" fill="#f4544d"/><polygon id="_Path_19" data-name="&lt;Path&gt;" points="79.25 20.05 74.78 21.51 73.03 26.71 73.98 31.46 76.98 36.08 81.34 38.6 86 36.81 87.53 32.16 86.66 27.27 83.62 22.51 79.25 20.05" fill="#d31111"/></g></g></g></g></svg>