<svg width="127" height="127" xmlns="http://www.w3.org/2000/svg" viewBox="0 0 99.05 120.57"><title>Asset 16</title><g id="Layer_2" data-name="Layer 2"><g id="Icons"><g id="_Group_" data-name="&lt;Group&gt;"><g id="_Group_2" data-name="&lt;Group&gt;"><polygon id="_Path_" data-name="&lt;Path&gt;" points="94.19 40.3 15.55 0 5.04 5.22 83.69 45.51 94.19 40.3" fill="#fabb05"/><polygon id="_Path_2" data-name="&lt;Path&gt;" points="88.54 48 5.04 5.22 0 7.72 0 72.24 3.81 79.23 84.49 120.56 88.54 118.56 88.54 48" fill="#fadd44"/><polygon id="_Path_3" data-name="&lt;Path&gt;" points="99.05 49.88 88.54 55.1 88.54 118.56 99.05 113.34 99.05 49.88" fill="#ed8c03"/><polygon id="_Path_4" data-name="&lt;Path&gt;" points="94.19 40.3 83.69 45.51 88.54 55.1 99.05 49.88 94.19 40.3" fill="#ffc32e"/></g><g id="_Group_3" data-name="&lt;Group&gt;"><polygon id="_Path_5" data-name="&lt;Path&gt;" points="0 16.25 0 36.43 88.54 81.8 88.54 61.62 0 16.25" fill="#777"/></g><polygon id="_Path_6" data-name="&lt;Path&gt;" points="19.19 63.8 7.74 57.93 7.74 72.76 23.68 80.93 23.68 71.79 19.19 63.8" fill="#ffc32e"/><polygon id="_Path_7" data-name="&lt;Path&gt;" points="44.96 85.5 42.01 83.99 42.01 90.22 44.96 91.73 44.96 85.5" fill="#ffc32e"/><polygon id="_Path_8" data-name="&lt;Path&gt;" points="49.05 87.66 46.09 86.14 46.09 92.37 49.05 93.89 49.05 87.66" fill="#ffc32e"/><polygon id="_Path_9" data-name="&lt;Path&gt;" points="57.24 91.97 54.29 90.46 54.29 96.68 57.24 98.2 57.24 91.97" fill="#ffc32e"/><polygon id="_Path_10" data-name="&lt;Path&gt;" points="61.3 93.99 58.34 92.47 58.34 98.7 61.3 100.21 61.3 93.99" fill="#ffc32e"/><polygon id="_Path_11" data-name="&lt;Path&gt;" points="65.39 96.08 62.43 94.57 62.43 100.8 65.39 102.31 65.39 96.08" fill="#ffc32e"/><polygon id="_Path_12" data-name="&lt;Path&gt;" points="73.55 100.15 70.6 98.64 70.6 104.86 73.55 106.38 73.55 100.15" fill="#ffc32e"/><polygon id="_Path_13" data-name="&lt;Path&gt;" points="77.64 102.31 74.68 100.79 74.68 107.02 77.64 108.53 77.64 102.31" fill="#ffc32e"/><polygon id="_Path_14" data-name="&lt;Path&gt;" points="81.72 104.47 78.77 102.95 78.77 109.18 81.72 110.69 81.72 104.47" fill="#ffc32e"/></g></g></g></svg>