<?xml version="1.0" encoding="utf-8"?>
<!-- Generator: Adobe Illustrator 21.0.2, SVG Export Plug-In . SVG Version: 6.00 Build 0)  -->
<svg width="127" height="127" version="1.1" id="Layer_1" xmlns="http://www.w3.org/2000/svg" xmlns:xlink="http://www.w3.org/1999/xlink" x="0px" y="0px"
	 viewBox="0 0 183.2 153" style="enable-background:new 0 0 183.2 153;" xml:space="preserve">
<style type="text/css">
	.st0{fill:#F49914;}
	.st1{fill:#0250C1;}
	.st2{fill:#0D9158;}
	.st3{fill:#4285F4;}
	.st4{fill:#76D1FF;}
	.st5{fill:#FFDF7B;}
	.st6{fill:#666666;}
	.st7{fill:#939393;}
	.st8{fill:#353535;}
	.st9{fill:#FABB05;}
	.st10{fill:#ED8C03;}
	.st11{fill:#FADD44;}
	.st12{fill:#F4F5F5;}
	.st13{fill:#DFE0E0;}
	.st14{fill:#C7C7C8;}
	.st15{fill:none;stroke:#221F1F;stroke-width:1.4441;stroke-miterlimit:10;}
	.st16{fill:none;stroke:#221F1F;stroke-width:1.2275;stroke-miterlimit:10;}
</style>
<g id="XMLID_3_">
	<polygon id="XMLID_6742_" class="st0" points="119.6,119.8 109.9,120.7 95.7,132.9 121.9,127.8 	"/>
	<g id="XMLID_6659_">
		<g id="XMLID_6688_">
			<g id="XMLID_6737_">
				<polygon id="XMLID_6741_" class="st1" points="94,43.6 86.5,51.9 86.5,39.7 				"/>
				<polygon id="XMLID_6740_" class="st2" points="86.5,39.7 78.9,43.6 86.5,51.9 				"/>
				<polygon id="XMLID_6739_" class="st3" points="94,43.6 86.5,35.3 86.5,47.5 				"/>
				<polygon id="XMLID_6738_" class="st4" points="86.5,47.5 78.9,43.6 86.5,35.3 				"/>
			</g>
			<g id="XMLID_6732_">
				<polygon id="XMLID_6736_" class="st1" points="110.1,51.9 102.6,60.2 102.6,48 				"/>
				<polygon id="XMLID_6735_" class="st5" points="102.6,48 95.1,51.9 102.6,60.2 				"/>
				<polygon id="XMLID_6734_" class="st3" points="110.1,51.9 102.6,43.5 102.6,55.8 				"/>
				<polygon id="XMLID_6733_" class="st4" points="102.6,55.8 95.1,51.9 102.6,43.5 				"/>
			</g>
			<g id="XMLID_6728_">
				<polygon id="XMLID_6731_" class="st3" points="91.7,22.2 91.7,44.8 89.3,43.6 89.3,21 				"/>
				<polygon id="XMLID_6730_" class="st1" points="91.7,22.2 91.7,44.8 94,43.6 94,21 				"/>
				<polygon id="XMLID_6729_" class="st5" points="89.3,21 91.7,19.8 94,21 91.7,22.2 				"/>
			</g>
			<g id="XMLID_6705_">
				<polygon id="XMLID_6727_" class="st3" points="107.8,30.5 107.8,53.1 105.5,51.9 105.5,29.3 				"/>
				<polygon id="XMLID_6726_" class="st4" points="107.8,30.5 107.8,53.1 110.1,51.9 110.1,29.3 				"/>
				<polygon id="XMLID_6717_" class="st5" points="105.5,29.3 107.8,28.1 110.1,29.3 107.8,30.5 				"/>
			</g>
			<polygon id="XMLID_6697_" class="st5" points="91.7,19.8 110.1,29.3 107.8,30.5 89.3,21 			"/>
			<polygon id="XMLID_6690_" class="st3" points="89.3,21 89.3,24.7 107.8,34.2 107.8,30.5 			"/>
		</g>
		<g id="XMLID_6675_">
			<g id="XMLID_6683_">
				<polygon id="XMLID_6687_" class="st1" points="78.3,26.3 70,35.5 70,22 				"/>
				<polygon id="XMLID_6686_" class="st2" points="70,22 61.6,26.3 70,35.5 				"/>
				<polygon id="XMLID_6685_" class="st3" points="78.3,26.3 70,17.1 70,30.6 				"/>
				<polygon id="XMLID_6684_" class="st4" points="70,30.6 61.6,26.3 70,17.1 				"/>
			</g>
			<g id="XMLID_6679_">
				<polygon id="XMLID_6682_" class="st3" points="75.7,2.7 75.7,27.6 73.1,26.3 73.1,1.3 				"/>
				<polygon id="XMLID_6681_" class="st1" points="75.7,2.7 75.7,27.6 78.3,26.3 78.3,1.3 				"/>
				<polygon id="XMLID_6680_" class="st5" points="73.1,1.3 75.7,0 78.3,1.3 75.7,2.7 				"/>
			</g>
			<polygon id="XMLID_6678_" class="st5" points="75.7,0 73.1,1.3 84.4,7.1 87,5.8 			"/>
			<polygon id="XMLID_6677_" class="st3" points="73.1,1.3 73.1,5.4 84.4,11.2 84.4,7.1 			"/>
			<polygon id="XMLID_6676_" class="st4" points="87,5.8 84.4,7.1 84.4,11.2 87,9.9 			"/>
		</g>
		<g id="XMLID_6660_">
			<g id="XMLID_6670_">
				<g id="XMLID_6671_">
					<polygon id="XMLID_6674_" class="st6" points="93.3,82.5 85.1,78.3 93.3,74 101.6,78.3 					"/>
					<polygon id="XMLID_6673_" class="st7" points="85.1,78.3 85.1,88.6 93.3,92.8 93.3,82.5 					"/>
					<polygon id="XMLID_6672_" class="st8" points="93.3,82.5 101.6,78.3 101.6,88.6 93.3,92.8 					"/>
				</g>
			</g>
			<g id="XMLID_6664_">
				<polygon id="XMLID_6669_" class="st6" points="104.9,89 104.9,146.6 102.6,145.4 102.6,87.8 				"/>
				<polygon id="XMLID_6668_" class="st8" points="104.9,89 104.9,146.6 107.3,145.4 107.3,87.8 				"/>
				<polygon id="XMLID_6665_" class="st5" points="102.6,87.8 104.9,86.6 107.3,87.8 104.9,89 				"/>
			</g>
			<polygon id="XMLID_6663_" class="st5" points="98.7,83.1 113.1,90.4 110.8,91.6 96.4,84.3 			"/>
			<polygon id="XMLID_6662_" class="st9" points="96.4,84.3 96.4,87.9 110.8,95.4 110.8,91.6 			"/>
			<polygon id="XMLID_6661_" class="st10" points="113.1,90.4 113.1,94.2 110.8,95.4 110.8,91.6 			"/>
		</g>
	</g>
	<g id="XMLID_6580_">
		<g id="XMLID_6581_">
			<polygon id="XMLID_6587_" class="st10" points="59.5,99.4 72.3,89.3 55.2,81 34.2,90.2 			"/>
			<polygon id="XMLID_6584_" class="st11" points="72.3,89.3 76.5,95.8 59.8,109.2 59.5,99.4 			"/>
			<polygon id="XMLID_6582_" class="st0" points="59.5,99.4 34.2,90.2 30.1,97.9 59.8,109.2 			"/>
		</g>
	</g>
	<g id="XMLID_6576_">
		<g id="XMLID_6577_">
			<polygon id="XMLID_6579_" class="st9" points="76.5,95.8 59.8,109.2 57.5,123.8 67.5,122.1 71.6,119.6 			"/>
			<polygon id="XMLID_6578_" class="st10" points="30.1,97.9 36.7,120.9 46.4,125.6 46.4,125.6 57.5,123.8 59.8,109.2 			"/>
		</g>
	</g>
	<g id="XMLID_6548_">
		<polygon id="XMLID_6575_" class="st12" points="83,77.2 69.4,54.5 65.7,85.2 		"/>
		<path id="XMLID_6574_" class="st13" d="M37.2,60.1c0,0.2,28.6,25.1,28.6,25.1l3.7-30.7L37.2,60.1z"/>
		<polygon id="XMLID_6573_" class="st14" points="24,85.2 65.7,85.2 37.2,60.1 		"/>
		<polygon id="XMLID_6571_" class="st9" points="69.4,54.5 49,51.4 37.2,60.1 		"/>
		<polygon id="XMLID_6570_" class="st9" points="68.3,54.4 63.2,45.3 65,54 		"/>
		<path id="XMLID_6569_" class="st10" d="M63.7,53.8c0.1-0.4-0.5-8.4-0.5-8.4l1.8,8.7L63.7,53.8z"/>
		<polygon id="XMLID_6567_" class="st10" points="32.7,49.2 31.6,59.5 34.3,58.6 		"/>
		<polygon id="XMLID_6566_" class="st9" points="36,57.6 32.7,49.2 34.3,58.6 		"/>
		<polygon id="XMLID_6565_" class="st0" points="83,77.2 62,91 24,85.2 65.7,85.2 		"/>
		<polygon id="XMLID_6564_" class="st11" points="49,51.4 31.4,59.2 24,85.2 37.2,60.1 		"/>
		<polygon id="XMLID_6563_" class="st10" points="37.2,60.1 24,85.2 31.4,59.2 		"/>
		<polyline id="XMLID_6562_" class="st15" points="39.8,74.4 42.1,70.6 45.7,72.9 		"/>
		<polyline id="XMLID_6549_" class="st16" points="70.4,69 71.6,65.8 73.6,67.4 		"/>
	</g>
	<polygon id="XMLID_6546_" class="st9" points="33.3,94.3 25.7,87.2 0,85.7 24.4,97 	"/>
	<polygon id="XMLID_6545_" class="st0" points="76.3,92.5 84.3,98.8 89.5,117.1 77.8,103.8 	"/>
	<polygon id="XMLID_6544_" class="st0" points="70.9,122.5 74.4,131.6 71.1,149.1 62.3,131 	"/>
	<polygon id="XMLID_6543_" class="st0" points="41.6,123.8 48.7,129.3 35.8,148 36.8,126 	"/>
	<polygon id="XMLID_6542_" class="st0" points="46.4,125.6 59.8,109.2 67.5,122.1 	"/>
	<g id="XMLID_6537_">
		<g id="XMLID_6538_">
			<polygon id="XMLID_6541_" class="st10" points="132.8,96.7 120,90.7 137.1,82.4 158.1,91.6 			"/>
			<polygon id="XMLID_6540_" class="st11" points="120,90.7 115.8,97.2 132.5,106.5 132.8,96.7 			"/>
			<polygon id="XMLID_6539_" class="st0" points="132.8,96.7 158.1,91.6 162.2,99.3 132.5,106.5 			"/>
		</g>
	</g>
	<g id="XMLID_6533_">
		<g id="XMLID_6534_">
			<polygon id="XMLID_6536_" class="st9" points="115.8,97.2 132.5,106.5 134.8,125.2 124.8,123.5 120.7,121 			"/>
			<polygon id="XMLID_6535_" class="st10" points="162.2,99.3 155.6,122.3 145.9,127 145.9,127 134.8,125.2 132.5,106.5 			"/>
		</g>
	</g>
	<g id="XMLID_6400_">
		<polygon id="XMLID_6532_" class="st9" points="124.9,55.3 124.1,49 128.2,54.9 		"/>
		<path id="XMLID_6531_" class="st10" d="M129.5,54.7c-0.1-0.4-5.5-5.7-5.5-5.7l4.2,5.9L129.5,54.7z"/>
		<polygon id="XMLID_6530_" class="st12" points="112.1,76.8 125.7,54 134.8,74 		"/>
		<path id="XMLID_6529_" class="st13" d="M157.9,59.6c0,0.2-23.1,14.4-23.1,14.4l-9.2-20L157.9,59.6z"/>
		<polygon id="XMLID_6528_" class="st14" points="171.1,84.7 134.8,74 157.9,59.6 		"/>
		<polygon id="XMLID_6527_" class="st9" points="125.7,54 142.9,53.7 157.9,59.6 		"/>
		<polygon id="XMLID_6526_" class="st10" points="165.6,54.3 160.7,60.5 158,59.5 		"/>
		<polygon id="XMLID_6525_" class="st9" points="155.4,57.6 165.6,54.3 158,59.5 		"/>
		<polygon id="XMLID_6524_" class="st0" points="112.1,76.8 133.1,90.6 171.1,84.7 134.8,74 		"/>
		<polygon id="XMLID_6523_" class="st11" points="142.9,53.7 160.4,58.7 171.1,84.7 157.9,59.6 		"/>
		<polygon id="XMLID_6522_" class="st10" points="157.9,59.6 171.1,84.7 160.4,58.7 		"/>
		<polyline id="XMLID_6402_" class="st15" points="154.4,72.1 152.1,68.2 148.4,70.5 		"/>
		<polyline id="XMLID_6401_" class="st15" points="128.1,67.5 125.3,65.4 122.5,67.7 		"/>
	</g>
	<polygon id="XMLID_6388_" class="st9" points="163.2,94 164.5,83.7 183.2,65.9 171.8,90.3 	"/>
	<polygon id="XMLID_6373_" class="st0" points="118.8,92 117.5,81.9 104.6,68 109.9,84.8 	"/>
	<polygon id="XMLID_6372_" class="st0" points="150.7,125.2 143.6,130.6 147.3,153 155.5,127.4 	"/>
	<polygon id="XMLID_6371_" class="st0" points="145.9,127 132.5,106.5 124.8,123.5 	"/>
	<polygon id="XMLID_6370_" class="st11" points="133.1,90.6 134.8,74 112.1,76.8 	"/>
</g>
</svg>
